<svg xmlns="http://www.w3.org/2000/svg" width="192" height="36" fill="none" viewBox="0 0 192 36"><path fill="#fff" d="M28 0a8 8 0 0 1 8 8v20a8 8 0 0 1-8 8H8a8 8 0 0 1-8-8V8a8 8 0 0 1 8-8zM8 27l4.825-.99v-9.42l4.171 9.12h2.979l4.14-9.12v9.42L29 27V9h-6.166l-4.379 8.46L14.106 9H8zm97.031-1.7q-1.61 0-2.83-.7a5 5 0 0 1-1.89-1.97q-.67-1.27-.67-2.94 0-1.77.66-3.07.67-1.3 1.86-2.01t2.77-.71q1.65 0 2.81.77 1.16.76 1.73 2.17.58 1.41.46 3.35h-2.09v-.76q-.02-1.88-.72-2.78-.69-.9-2.11-.9-1.57 0-2.36.99t-.79 2.86q0 1.78.79 2.76.79.97 2.28.97.98 0 1.69-.44.72-.45 1.12-1.28l2.05.65q-.63 1.45-1.91 2.25-1.28.79-2.85.79m-3.85-5.11v-1.63h7.71v1.63zM95.548 25V10.3h2.09V25zm-2.077 0a9 9 0 0 1-2 .17q-.98-.03-1.75-.38t-1.16-1.1q-.35-.67-.38-1.36-.02-.7-.02-1.58V11.2h2.1v9.45q0 .65.01 1.13.021.48.21.81.36.62 1.14.71.79.08 1.85-.07zm-7.38-9.12V14.2h7.38v1.68zM82.967 25v-5.31q0-.63-.11-1.29-.1-.67-.4-1.24a2.35 2.35 0 0 0-.83-.92q-.53-.35-1.39-.35-.56 0-1.06.19-.5.18-.88.59-.37.41-.59 1.08-.21.67-.21 1.63l-1.3-.49q0-1.47.55-2.59a4.13 4.13 0 0 1 1.58-1.76q1.029-.63 2.49-.63 1.12 0 1.88.36t1.23.95q.48.58.73 1.27t.34 1.35.09 1.16v6zm-7.59 0V14.2h1.87v3.12h.25V25zm-7.927.3q-1.2 0-2.01-.44-.81-.45-1.23-1.18a3.3 3.3 0 0 1-.41-1.62q0-.82.29-1.44t.86-1.05q.57-.44 1.4-.71.72-.21 1.63-.37a55 55 0 0 1 1.91-.3q1.01-.14 2-.28l-.76.42q.02-1.27-.54-1.88-.55-.62-1.9-.62-.85 0-1.56.4-.71.39-.99 1.3l-1.95-.6q.4-1.39 1.52-2.21 1.13-.82 3-.82 1.45 0 2.52.5 1.08.49 1.58 1.56.26.53.32 1.12t.06 1.27V25h-1.85v-2.47l.36.32q-.67 1.24-1.71 1.85-1.03.6-2.54.6m.37-1.71q.89 0 1.53-.31a3 3 0 0 0 1.03-.81q.39-.49.51-1.02.17-.48.19-1.08.03-.6.03-.96l.68.25-1.8.27q-.81.12-1.47.24-.65.11-1.16.27-.43.15-.77.36-.33.21-.53.51-.19.3-.19.73 0 .42.21.78.21.35.64.56t1.1.21M46.598 10.455h2.663l4.631 11.306h.17l4.631-11.306h2.663V25.25H59.27V14.474h-.136l-4.29 10.776h-1.732l-4.29-10.783h-.135V25.25h-2.088zm141.035 14.806q-1.71 0-2.817-.738-1.098-.738-1.35-2.052l1.35-.225q.216.828.981 1.323.774.486 1.908.486 1.107 0 1.746-.459.639-.468.639-1.269 0-.45-.207-.729-.198-.288-.819-.531t-1.854-.576q-1.323-.36-2.07-.72t-1.062-.828q-.315-.477-.315-1.161 0-.828.468-1.449.468-.63 1.296-.972.828-.351 1.926-.351t1.962.36q.873.351 1.404.99t.63 1.485l-1.35.243a1.95 1.95 0 0 0-.855-1.35q-.711-.504-1.809-.522-1.035-.027-1.683.396-.648.414-.648 1.107 0 .387.234.666.234.27.846.513.621.243 1.764.531 1.341.342 2.106.72t1.089.891.324 1.269q0 1.377-1.026 2.169-1.017.783-2.808.783m-9.097 0q-1.71 0-2.817-.738-1.098-.738-1.35-2.052l1.35-.225q.216.828.981 1.323.774.486 1.908.486 1.107 0 1.746-.459.639-.468.639-1.269 0-.45-.207-.729-.198-.288-.819-.531t-1.854-.576q-1.323-.36-2.07-.72t-1.062-.828q-.315-.477-.315-1.161 0-.828.468-1.449.468-.63 1.296-.972.828-.351 1.926-.351t1.962.36q.873.351 1.404.99t.63 1.485l-1.35.243a1.95 1.95 0 0 0-.855-1.35q-.711-.504-1.809-.522-1.035-.027-1.683.396-.648.414-.648 1.107 0 .387.234.666.234.27.846.513.621.243 1.764.531 1.341.342 2.106.72t1.089.891.324 1.269q0 1.377-1.026 2.169-1.017.783-2.808.783m-10.488.009q-1.098 0-1.845-.396-.738-.396-1.107-1.053a2.9 2.9 0 0 1-.369-1.431q0-.792.315-1.35a2.7 2.7 0 0 1 .873-.927q.558-.36 1.287-.549.738-.18 1.629-.315.9-.144 1.755-.243.864-.108 1.512-.207l-.468.288q.027-1.44-.558-2.133t-2.034-.693q-.999 0-1.692.45-.684.45-.963 1.422l-1.287-.378q.333-1.305 1.341-2.025t2.619-.72q1.332 0 2.259.504.936.495 1.323 1.44.18.423.234.945t.054 1.062V25h-1.179v-2.439l.342.144q-.495 1.251-1.539 1.908t-2.502.657m.153-1.143q.927 0 1.62-.333a2.9 2.9 0 0 0 1.116-.909q.423-.585.549-1.314.108-.468.117-1.026.009-.567.009-.846l.504.261q-.675.09-1.467.18-.783.09-1.548.207-.756.117-1.368.279a3.7 3.7 0 0 0-.801.333 1.85 1.85 0 0 0-.639.558q-.243.351-.243.873 0 .423.207.819.216.396.684.657.477.261 1.26.261m-8.861 1.143q-1.341 0-2.268-.675-.927-.684-1.404-1.845-.477-1.17-.477-2.619 0-1.476.477-2.628.486-1.161 1.422-1.827t2.304-.666q1.332 0 2.286.675t1.458 1.836q.513 1.161.513 2.61 0 1.458-.513 2.619t-1.476 1.845q-.963.675-2.322.675m-4.374 4.05V15.28h1.188v7.317h.144v6.723zm4.239-5.283q1.017 0 1.692-.513t1.008-1.395q.342-.891.342-1.998 0-1.098-.333-1.98t-1.017-1.395q-.675-.513-1.719-.513-1.017 0-1.692.495-.666.495-.999 1.377-.333.873-.333 2.016 0 1.125.333 2.016.333.882 1.008 1.386t1.71.504m-7.536.963.009-6.381q0-1.125-.63-1.764-.621-.648-1.584-.648-.549 0-1.071.252a2.07 2.07 0 0 0-.864.81q-.333.558-.333 1.458l-.783-.225q-.027-1.044.405-1.827a3.13 3.13 0 0 1 1.206-1.215 3.46 3.46 0 0 1 1.746-.441q1.467 0 2.349.909.882.9.882 2.439L152.992 25zm-11.601 0v-9.72h1.188v2.394h.144V25zm5.814 0 .009-6.291q0-1.161-.621-1.827-.612-.675-1.62-.675t-1.629.693q-.621.684-.621 1.827l-.792-.432a3.2 3.2 0 0 1 .441-1.674 3.14 3.14 0 0 1 1.206-1.17q.765-.432 1.737-.432.927 0 1.647.396.729.396 1.143 1.152t.414 1.836L147.187 25zm-12.038.27q-1.449 0-2.475-.657a4.3 4.3 0 0 1-1.575-1.818q-.549-1.161-.549-2.664 0-1.53.558-2.682t1.584-1.791q1.035-.648 2.457-.648 1.458 0 2.484.657a4.14 4.14 0 0 1 1.575 1.809q.549 1.152.549 2.655 0 1.53-.549 2.691a4.2 4.2 0 0 1-1.584 1.8q-1.035.648-2.475.648m0-1.269q1.62 0 2.412-1.071.792-1.08.792-2.799 0-1.764-.801-2.808-.792-1.044-2.403-1.044-1.089 0-1.8.495-.702.486-1.053 1.359-.342.864-.342 1.998 0 1.755.81 2.817.81 1.053 2.385 1.053m-11.337 1.269q-1.935 0-3.267-.855-1.332-.864-2.016-2.385t-.684-3.51.684-3.51 2.016-2.376q1.332-.864 3.267-.864 2.259 0 3.69 1.161 1.431 1.152 1.962 3.096l-1.35.351q-.414-1.539-1.485-2.439t-2.817-.9q-1.521 0-2.529.693t-1.521 1.935q-.504 1.233-.522 2.853-.009 1.62.495 2.853.513 1.233 1.53 1.935 1.026.693 2.547.693 1.746 0 2.817-.9 1.071-.909 1.485-2.439l1.35.351q-.531 1.944-1.962 3.105-1.431 1.152-3.69 1.152"/></svg>